<svg width="44" height="44" viewBox="0 0 44 44" fill="none" xmlns="http://www.w3.org/2000/svg">
    <rect width="44" height="44" rx="5.57532" fill="#BBD0B9" />
    <path
        d="M26.9473 12.3453C26.9473 14.1961 28.4341 15.7403 30.4319 16.1863V20.31C30.4319 21.9567 28.8685 23.2968 26.9473 23.2968H17.6551C16.3426 23.2968 15.1439 23.6861 14.1705 24.3183V16.1863C16.1684 15.7413 17.6551 14.1951 17.6551 12.3453C17.6551 10.149 15.5713 8.36292 13.009 8.36292C10.4467 8.36292 8.36292 10.149 8.36292 12.3453C8.36292 14.1961 9.84967 15.7403 11.8475 16.1863V28.4161C9.84967 28.8612 8.36292 30.4073 8.36292 32.2571C8.36292 34.4534 10.4467 36.2395 13.009 36.2395C15.5713 36.2395 17.6551 34.4534 17.6551 32.2571C17.6551 30.4073 16.1684 28.8622 14.1705 28.4161V28.2748C14.1705 26.6281 15.734 25.288 17.6551 25.288H26.9473C30.1496 25.288 32.7549 23.0549 32.7549 20.31V16.1863C34.7528 15.7413 36.2395 14.1951 36.2395 12.3453C36.2395 10.149 34.1557 8.36292 31.5934 8.36292C29.0311 8.36292 26.9473 10.149 26.9473 12.3453ZM10.686 12.3453C10.686 11.2481 11.7279 10.3541 13.009 10.3541C14.2902 10.3541 15.3321 11.2481 15.3321 12.3453C15.3321 13.4434 14.2902 14.3365 13.009 14.3365C11.7279 14.3365 10.686 13.4434 10.686 12.3453ZM15.3321 32.2571C15.3321 33.3553 14.2902 34.2483 13.009 34.2483C11.7279 34.2483 10.686 33.3553 10.686 32.2571C10.686 31.159 11.7279 30.266 13.009 30.266C14.2902 30.266 15.3321 31.159 15.3321 32.2571ZM33.9165 12.3453C33.9165 13.4434 32.8746 14.3365 31.5934 14.3365C30.3123 14.3365 29.2704 13.4434 29.2704 12.3453C29.2704 11.2471 30.3134 10.3541 31.5934 10.3541C32.8734 10.3541 33.9165 11.2481 33.9165 12.3453Z"
        fill="#25671E" />
</svg>