<svg width="44" height="44" viewBox="0 0 44 44" fill="none" xmlns="http://www.w3.org/2000/svg">
    <rect width="44" height="44" rx="5.625" fill="#BBD0B9" />
    <path
        d="M26.5833 32.9804L23.6156 30.4367L22 31.8215L26.5833 35.75L35.75 27.893L34.1344 26.5082L26.5833 32.9804Z"
        fill="#25671E" />
    <path
        d="M18.5625 33.7857H10.5417V10.2147H19.7083V16.1075C19.7101 16.6279 19.9522 17.1266 20.3815 17.4947C20.8109 17.8627 21.3928 18.0702 22 18.0717H28.875V23.9645H31.1667V16.1075C31.1707 15.9784 31.1421 15.8501 31.0827 15.7314C31.0234 15.6127 30.9348 15.5065 30.8229 15.42L22.8021 8.54509C22.7016 8.44871 22.5778 8.37238 22.4392 8.32147C22.3006 8.27056 22.1507 8.24632 22 8.25045H10.5417C9.93444 8.25201 9.3526 8.45945 8.92322 8.82749C8.49384 9.19552 8.25181 9.69423 8.25 10.2147V33.7857C8.25181 34.3062 8.49384 34.8049 8.92322 35.1729C9.3526 35.541 9.93444 35.7484 10.5417 35.75H18.5625V33.7857ZM22 10.6076L28.4167 16.1075H22V10.6076Z"
        fill="#25671E" />
</svg>