<svg width="44" height="44" viewBox="0 0 44 44" fill="none" xmlns="http://www.w3.org/2000/svg">
    <rect width="44" height="44" rx="5.57532" fill="#BBD0B9" />
    <path
        d="M17.6552 36.2395H22.3013M22.3013 36.2395H26.9474M22.3013 36.2395V31.0127M22.3013 31.0127H33.1422C33.9637 31.0127 34.7515 30.6455 35.3324 29.992C35.9132 29.3386 36.2396 28.4522 36.2396 27.5281V11.8475C36.2396 10.9233 35.9132 10.037 35.3324 9.38352C34.7515 8.73004 33.9637 8.36292 33.1422 8.36292H11.4604C10.6389 8.36292 9.85106 8.73004 9.27018 9.38352C8.68931 10.037 8.36298 10.9233 8.36298 11.8475V27.5281C8.36298 28.4522 8.68931 29.3386 9.27018 29.992C9.85106 30.6455 10.6389 31.0127 11.4604 31.0127H22.3013Z"
        stroke="#25671E" stroke-width="2.23013" stroke-linecap="round"
        stroke-linejoin="round" />
</svg>
