<svg width="24" height="24" viewBox="0 0 24 24" fill="none" xmlns="http://www.w3.org/2000/svg">
<path d="M12.4122 17.2359L7.93776 19.9378C7.80628 20.0028 7.68425 20.0291 7.57167 20.0167C7.45991 20.0036 7.35103 19.965 7.24502 19.9009C7.13819 19.8351 7.05766 19.7423 7.00343 19.6223C6.94919 19.5023 6.94426 19.3713 6.98864 19.2291L8.17935 14.163L4.24111 10.7486C4.13018 10.6582 4.05704 10.5502 4.02171 10.4244C3.98637 10.2987 3.99418 10.1783 4.04513 10.0633C4.09607 9.94824 4.16387 9.85374 4.24851 9.77978C4.33397 9.70829 4.44902 9.65981 4.59364 9.63433L9.79039 9.18073L11.8168 4.38335C11.8727 4.24776 11.9532 4.14997 12.0584 4.08998C12.1636 4.02999 12.2815 4 12.4122 4C12.5428 4 12.6612 4.02999 12.7672 4.08998C12.8732 4.14997 12.9533 4.24776 13.0075 4.38335L15.034 9.18073L20.2295 9.63433C20.3749 9.65898 20.4904 9.70788 20.5759 9.78101C20.6613 9.85333 20.7295 9.94742 20.7805 10.0633C20.8306 10.1783 20.838 10.2987 20.8027 10.4244C20.7673 10.5502 20.6942 10.6582 20.5833 10.7486L16.645 14.163L17.8357 19.2291C17.8818 19.3696 17.8772 19.5003 17.8222 19.6211C17.7671 19.7419 17.6862 19.8347 17.5794 19.8996C17.4742 19.9654 17.3653 20.0044 17.2527 20.0167C17.141 20.0291 17.0193 20.0028 16.8879 19.9378L12.4122 17.2359Z" fill="#FFA006"/>
</svg>
