<svg width="44" height="44" viewBox="0 0 44 44" fill="none" xmlns="http://www.w3.org/2000/svg">
    <rect width="44" height="44" rx="5.57532" fill="#BBD0B9" />
    <path
        d="M20.8079 29.8065C20.8079 30.0908 20.703 30.3635 20.5163 30.5646C20.3296 30.7657 20.0763 30.8786 19.8123 30.8786H16.3277C16.0637 30.8786 15.8104 30.7657 15.6237 30.5646C15.437 30.3635 15.3321 30.0908 15.3321 29.8065C15.3321 29.5221 15.437 29.2494 15.6237 29.0483C15.8104 28.8472 16.0637 28.7343 16.3277 28.7343H19.8123C20.0763 28.7343 20.3296 28.8472 20.5163 29.0483C20.703 29.2494 20.8079 29.5221 20.8079 29.8065ZM28.2748 28.7343H24.7903C24.5262 28.7343 24.273 28.8472 24.0863 29.0483C23.8996 29.2494 23.7947 29.5221 23.7947 29.8065C23.7947 30.0908 23.8996 30.3635 24.0863 30.5646C24.273 30.7657 24.5262 30.8786 24.7903 30.8786H28.2748C28.5389 30.8786 28.7921 30.7657 28.9788 30.5646C29.1655 30.3635 29.2704 30.0908 29.2704 29.8065C29.2704 29.5221 29.1655 29.2494 28.9788 29.0483C28.7921 28.8472 28.5389 28.7343 28.2748 28.7343ZM36.2396 35.1673C36.2396 35.4517 36.1347 35.7244 35.948 35.9255C35.7613 36.1266 35.508 36.2395 35.244 36.2395H9.35857C9.09452 36.2395 8.84129 36.1266 8.65458 35.9255C8.46787 35.7244 8.36298 35.4517 8.36298 35.1673C8.36298 34.883 8.46787 34.6103 8.65458 34.4092C8.84129 34.2081 9.09452 34.0952 9.35857 34.0952H10.3542V18.0125C10.3542 17.8134 10.4056 17.6182 10.5029 17.4488C10.6001 17.2795 10.7391 17.1426 10.9045 17.0535C11.0699 16.9645 11.255 16.9268 11.4392 16.9447C11.6233 16.9625 11.7992 17.0353 11.9471 17.1548L18.3189 22.3012V18.0125C18.3189 17.8134 18.3704 17.6182 18.4676 17.4488C18.5648 17.2795 18.7039 17.1426 18.8693 17.0535C19.0346 16.9645 19.2198 16.9268 19.4039 16.9447C19.5881 16.9625 19.7639 17.0353 19.9119 17.1548L24.733 21.0481L26.1716 10.2044C26.2413 9.69423 26.4785 9.22789 26.8402 8.89001C27.2019 8.55214 27.6641 8.36512 28.1429 8.36292H30.3979C30.8767 8.36512 31.3389 8.55214 31.7006 8.89001C32.0623 9.22789 32.2995 9.69423 32.3692 10.2044L34.2359 24.2941C34.2359 24.2941 34.2459 24.3987 34.2459 24.4456V34.0952H35.2415C35.3724 34.0948 35.5022 34.1223 35.6233 34.176C35.7443 34.2297 35.8544 34.3087 35.9471 34.4082C36.0398 34.5078 36.1134 34.6262 36.1636 34.7564C36.2137 34.8867 36.2396 35.0263 36.2396 35.1673ZM26.55 22.5157L27.6115 23.3734H32.1054L30.3979 10.5073H28.1429L26.55 22.5157ZM12.3453 34.0952H32.2572V25.5177H27.2792C27.0638 25.5177 26.8542 25.4425 26.6819 25.3033L24.8898 23.8559L20.3101 20.1569V24.4456C20.3101 24.6447 20.2586 24.8399 20.1614 25.0092C20.0642 25.1786 19.9251 25.3155 19.7597 25.4046C19.5944 25.4936 19.4092 25.5313 19.2251 25.5134C19.0409 25.4955 18.8651 25.4228 18.7171 25.3033L12.3453 20.1569V34.0952Z"
        fill="#25671E" />
</svg>