<svg width="44" height="44" viewBox="0 0 44 44" fill="none" xmlns="http://www.w3.org/2000/svg">
<rect width="44" height="44" rx="8" fill="#C7DAED"/>
<path d="M29.8627 7.18349C28.8776 7.18167 27.9237 7.51937 27.1699 8.13678C26.416 8.75418 25.9109 9.61145 25.744 10.5567C25.5771 11.502 25.7591 12.4743 26.2579 13.3015C26.7566 14.1286 27.5399 14.7571 28.469 15.0758V19.3964H14.5328V15.0758C15.4627 14.7557 16.2464 14.1258 16.7454 13.2975C17.2444 12.4691 17.4266 11.4957 17.2599 10.5492C17.0931 9.6027 16.5881 8.74408 15.834 8.1251C15.08 7.50612 14.1255 7.16663 13.1392 7.16663C12.153 7.16663 11.1985 7.50612 10.4444 8.1251C9.69039 8.74408 9.18535 9.6027 9.01857 10.5492C8.85179 11.4957 9.03402 12.4691 9.53304 13.2975C10.0321 14.1258 10.8158 14.7557 11.7456 15.0758V26.4311C10.8158 26.7512 10.0321 27.3811 9.53304 28.2094C9.03402 29.0377 8.85179 30.0112 9.01857 30.9577C9.18535 31.9042 9.69039 32.7628 10.4444 33.3818C11.1985 34.0007 12.153 34.3402 13.1392 34.3402C14.1255 34.3402 15.08 34.0007 15.834 33.3818C16.5881 32.7628 17.0931 31.9042 17.2599 30.9577C17.4266 30.0112 17.2444 29.0377 16.7454 28.2094C16.2464 27.3811 15.4627 26.7512 14.5328 26.4311V22.1104H28.469C29.2083 22.1104 29.9172 21.8245 30.4399 21.3155C30.9626 20.8065 31.2563 20.1162 31.2563 19.3964V15.0758C32.1854 14.7571 32.9687 14.1286 33.4675 13.3015C33.9662 12.4743 34.1483 11.502 33.9814 10.5567C33.8144 9.61145 33.3093 8.75418 32.5555 8.13678C31.8016 7.51937 30.8477 7.18167 29.8627 7.18349ZM13.1392 31.6094C12.8636 31.6094 12.5941 31.5298 12.365 31.3807C12.1358 31.2316 11.9572 31.0196 11.8517 30.7717C11.7462 30.5237 11.7186 30.2509 11.7724 29.9877C11.8262 29.7244 11.9589 29.4826 12.1538 29.2928C12.3487 29.1031 12.597 28.9738 12.8673 28.9215C13.1377 28.8691 13.4179 28.896 13.6725 28.9987C13.9272 29.1014 14.1448 29.2753 14.298 29.4985C14.4511 29.7216 14.5328 29.984 14.5328 30.2524C14.5328 30.6123 14.386 30.9574 14.1247 31.2119C13.8633 31.4664 13.5088 31.6094 13.1392 31.6094ZM13.1392 12.6115C12.8636 12.6115 12.5941 12.5319 12.365 12.3828C12.1358 12.2337 11.9572 12.0217 11.8517 11.7738C11.7462 11.5258 11.7186 11.253 11.7724 10.9897C11.8262 10.7265 11.9589 10.4847 12.1538 10.2949C12.3487 10.1052 12.597 9.97591 12.8673 9.92355C13.1377 9.87119 13.4179 9.89807 13.6725 10.0008C13.9272 10.1035 14.1448 10.2774 14.298 10.5006C14.4511 10.7237 14.5328 10.9861 14.5328 11.2545C14.5328 11.6144 14.386 11.9595 14.1247 12.214C13.8633 12.4685 13.5088 12.6115 13.1392 12.6115ZM29.8627 12.6115C29.587 12.6115 29.3176 12.5319 29.0884 12.3828C28.8592 12.2337 28.6806 12.0217 28.5751 11.7738C28.4696 11.5258 28.4421 11.253 28.4958 10.9897C28.5496 10.7265 28.6823 10.4847 28.8772 10.2949C29.0721 10.1052 29.3204 9.97591 29.5908 9.92355C29.8611 9.87119 30.1413 9.89807 30.396 10.0008C30.6506 10.1035 30.8683 10.2774 31.0214 10.5006C31.1746 10.7237 31.2563 10.9861 31.2563 11.2545C31.2563 11.6144 31.1095 11.9595 30.8481 12.214C30.5868 12.4685 30.2323 12.6115 29.8627 12.6115Z" fill="#4E4E4E"/>
</svg>
