<svg width="44" height="44" viewBox="0 0 44 44" fill="none" xmlns="http://www.w3.org/2000/svg">
    <rect width="44" height="44" rx="8" fill="#BBD0B9" />
    <path
        d="M26.2334 32.1667V29.6111C26.2334 28.2555 25.6644 26.9555 24.6517 25.997C23.639 25.0384 22.2655 24.4999 20.8334 24.4999H12.7334C11.3012 24.4999 9.92769 25.0384 8.91499 25.997C7.90229 26.9555 7.33337 28.2555 7.33337 29.6111V32.1667M26.2334 9.33008C27.3913 9.61422 28.4168 10.2543 29.1489 11.1497C29.881 12.0452 30.2782 13.1454 30.2782 14.2777C30.2782 15.4099 29.881 16.5101 29.1489 17.4056C28.4168 18.3011 27.3913 18.9411 26.2334 19.2252M34.3334 32.1667V29.6111C34.3325 28.4786 33.9342 27.3785 33.2012 26.4835C32.4682 25.5884 31.4418 24.9492 30.2834 24.6661"
        stroke="#4E4E4E" stroke-width="2.5" stroke-linecap="round" stroke-linejoin="round" />
    <path
        d="M16.7832 19.389C19.7656 19.389 22.1832 17.1007 22.1832 14.2779C22.1832 11.4551 19.7656 9.16675 16.7832 9.16675C13.8009 9.16675 11.3832 11.4551 11.3832 14.2779C11.3832 17.1007 13.8009 19.389 16.7832 19.389Z"
        stroke="#4E4E4E" stroke-width="2.5" stroke-linecap="round" stroke-linejoin="round" />
</svg>