<svg width="44" height="44" viewBox="0 0 44 44" fill="none" xmlns="http://www.w3.org/2000/svg">
<rect width="44" height="44" rx="8" fill="#C7DAED"/>
<path d="M26.5834 32.9999V30.3518C26.5834 28.9471 26.0039 27.6 24.9725 26.6067C23.941 25.6135 22.5421 25.0555 21.0834 25.0555H12.8334C11.3747 25.0555 9.97574 25.6135 8.94429 26.6067C7.91284 27.6 7.33337 28.9471 7.33337 30.3518V32.9999M26.5834 9.33606C27.7628 9.63049 28.8073 10.2937 29.5529 11.2216C30.2986 12.1495 30.7031 13.2896 30.7031 14.4629C30.7031 15.6361 30.2986 16.7762 29.5529 17.7041C28.8073 18.632 27.7628 19.2953 26.5834 19.5897M34.8334 32.9999V30.3518C34.8325 29.1783 34.4269 28.0383 33.6803 27.1108C32.9336 26.1834 31.8883 25.521 30.7084 25.2276" stroke="#4E4E4E" stroke-width="2.5" stroke-linecap="round" stroke-linejoin="round"/>
<path d="M16.9582 19.7593C19.9958 19.7593 22.4582 17.3881 22.4582 14.463C22.4582 11.538 19.9958 9.16675 16.9582 9.16675C13.9207 9.16675 11.4582 11.538 11.4582 14.463C11.4582 17.3881 13.9207 19.7593 16.9582 19.7593Z" stroke="#4E4E4E" stroke-width="2.5" stroke-linecap="round" stroke-linejoin="round"/>
</svg>
