<svg width="44" height="44" viewBox="0 0 44 44" fill="none" xmlns="http://www.w3.org/2000/svg">
    <rect width="44" height="44" rx="6" fill="#C7DAED" />
    <path
        d="M8.25 8.25V25.4375C8.25 30.2981 8.25 32.7302 9.59292 34.2392C10.9343 35.75 13.0961 35.75 17.4167 35.75H35.75"
        stroke="#4988C4" stroke-width="2.60001" stroke-linecap="round"
        stroke-linejoin="round" />
    <path
        d="M12.8333 25.4375L17.7986 19.8516C18.7825 18.7447 19.2744 18.1913 19.8504 18.0091C20.257 17.8801 20.6874 17.8801 21.094 18.0091C21.67 18.1913 22.1619 18.7447 23.1458 19.8516C24.1297 20.9584 24.6217 21.5119 25.1976 21.6941C25.604 21.8247 26.0349 21.8247 26.4413 21.6941C27.0172 21.5119 27.5092 20.9584 28.4931 19.8516L34.2222 13.4062"
        stroke="#4988C4" stroke-width="2.60001" stroke-linecap="round"
        stroke-linejoin="round" />
</svg>