<svg width="28" height="32" viewBox="0 0 28 32" fill="none" xmlns="http://www.w3.org/2000/svg">
    <path
        d="M25.7717 12.421V17.251L23.7717 16.821V11.331C23.0179 10.9912 22.2389 10.7104 21.4417 10.491V16.311L19.4417 15.881V10.091C18.3417 9.91102 17.2617 9.79103 16.3617 9.73102V15.241L14.3617 14.811V2.43102C14.3356 1.76522 14.048 1.13658 13.5612 0.681614C13.0744 0.226644 12.4277 -0.0179215 11.7617 0.00102407C11.0957 -0.0179215 10.449 0.226644 9.96223 0.681614C9.47543 1.13658 9.18776 1.76522 9.1617 2.43102V17.951L7.1617 18.951V13.691L4.8317 11.301C4.30106 10.771 3.58172 10.4732 2.8317 10.4732C2.08168 10.4732 1.36233 10.771 0.831697 11.301C0.29844 11.8482 0 12.582 0 13.346C0 14.1101 0.29844 14.8439 0.831697 15.391L6.8317 22.491C6.99755 23.9788 7.4709 25.4159 8.2217 26.711C8.75775 27.7666 9.51088 28.6969 10.4317 29.441V32.001H24.8717V28.711C26.8906 26.3475 27.9598 23.3183 27.8717 20.211V14.211C27.2578 13.5202 26.5511 12.9178 25.7717 12.421Z"
        fill="#25671E" />
</svg>